<mxfile host="app.diagrams.net" modified="2022-02-21T02:09:15.214Z" agent="5.0 (Windows NT 10.0; Win64; x64) AppleWebKit/537.36 (KHTML, like Gecko) Chrome/98.0.4758.102 Safari/537.36 Edg/98.0.1108.56" etag="51SV2Hb6oBt6_go6HFDs" version="16.6.1" type="github">
  <diagram id="R2Fs3bJeJrh7fFrcBk27" name="Page-1">
    <mxGraphModel dx="942" dy="614" grid="1" gridSize="10" guides="1" tooltips="1" connect="1" arrows="1" fold="1" page="1" pageScale="1" pageWidth="827" pageHeight="1169" math="0" shadow="0">
      <root>
        <mxCell id="0" />
        <mxCell id="1" parent="0" />
        <mxCell id="n79x1sxixXkn9saHMdTL-2" value="立春" style="rounded=0;whiteSpace=wrap;html=1;" vertex="1" parent="1">
          <mxGeometry x="30" y="350" width="120" height="60" as="geometry" />
        </mxCell>
        <mxCell id="n79x1sxixXkn9saHMdTL-3" value="" style="endArrow=none;html=1;rounded=0;exitX=1;exitY=0.5;exitDx=0;exitDy=0;" edge="1" parent="1" source="n79x1sxixXkn9saHMdTL-2">
          <mxGeometry width="50" height="50" relative="1" as="geometry">
            <mxPoint x="30" y="510" as="sourcePoint" />
            <mxPoint x="240" y="380" as="targetPoint" />
          </mxGeometry>
        </mxCell>
        <mxCell id="n79x1sxixXkn9saHMdTL-5" value="季节" style="text;html=1;strokeColor=none;fillColor=none;align=center;verticalAlign=middle;whiteSpace=wrap;rounded=0;" vertex="1" parent="1">
          <mxGeometry x="30" y="270" width="120" height="30" as="geometry" />
        </mxCell>
        <mxCell id="n79x1sxixXkn9saHMdTL-6" value="雨水" style="rounded=0;whiteSpace=wrap;html=1;" vertex="1" parent="1">
          <mxGeometry x="30" y="440" width="120" height="60" as="geometry" />
        </mxCell>
        <mxCell id="n79x1sxixXkn9saHMdTL-7" value="" style="endArrow=none;html=1;rounded=0;exitX=0.992;exitY=0.617;exitDx=0;exitDy=0;exitPerimeter=0;" edge="1" parent="1" source="n79x1sxixXkn9saHMdTL-6">
          <mxGeometry width="50" height="50" relative="1" as="geometry">
            <mxPoint x="30" y="510" as="sourcePoint" />
            <mxPoint x="240" y="477" as="targetPoint" />
          </mxGeometry>
        </mxCell>
        <mxCell id="n79x1sxixXkn9saHMdTL-8" value="选项" style="text;html=1;strokeColor=none;fillColor=none;align=center;verticalAlign=middle;whiteSpace=wrap;rounded=0;" vertex="1" parent="1">
          <mxGeometry x="250" y="270" width="60" height="30" as="geometry" />
        </mxCell>
        <mxCell id="n79x1sxixXkn9saHMdTL-9" value="惊蛰" style="rounded=0;whiteSpace=wrap;html=1;" vertex="1" parent="1">
          <mxGeometry x="30" y="530" width="120" height="60" as="geometry" />
        </mxCell>
        <mxCell id="n79x1sxixXkn9saHMdTL-10" value="春分" style="rounded=0;whiteSpace=wrap;html=1;" vertex="1" parent="1">
          <mxGeometry x="30" y="620" width="120" height="60" as="geometry" />
        </mxCell>
        <mxCell id="n79x1sxixXkn9saHMdTL-11" value="清明" style="rounded=0;whiteSpace=wrap;html=1;" vertex="1" parent="1">
          <mxGeometry x="30" y="710" width="120" height="60" as="geometry" />
        </mxCell>
        <mxCell id="n79x1sxixXkn9saHMdTL-12" value="谷雨" style="rounded=0;whiteSpace=wrap;html=1;" vertex="1" parent="1">
          <mxGeometry x="30" y="790" width="120" height="60" as="geometry" />
        </mxCell>
        <mxCell id="n79x1sxixXkn9saHMdTL-13" value="春卷" style="rounded=0;whiteSpace=wrap;html=1;" vertex="1" parent="1">
          <mxGeometry x="240" y="350" width="120" height="60" as="geometry" />
        </mxCell>
        <mxCell id="n79x1sxixXkn9saHMdTL-14" value="龙须饼" style="rounded=0;whiteSpace=wrap;html=1;" vertex="1" parent="1">
          <mxGeometry x="240" y="440" width="120" height="60" as="geometry" />
        </mxCell>
        <mxCell id="n79x1sxixXkn9saHMdTL-15" value="驴打滚" style="rounded=0;whiteSpace=wrap;html=1;" vertex="1" parent="1">
          <mxGeometry x="240" y="530" width="120" height="60" as="geometry" />
        </mxCell>
        <mxCell id="n79x1sxixXkn9saHMdTL-16" value="" style="endArrow=none;html=1;rounded=0;entryX=0;entryY=0.5;entryDx=0;entryDy=0;exitX=1;exitY=0.5;exitDx=0;exitDy=0;" edge="1" parent="1" source="n79x1sxixXkn9saHMdTL-9" target="n79x1sxixXkn9saHMdTL-15">
          <mxGeometry width="50" height="50" relative="1" as="geometry">
            <mxPoint x="140" y="510" as="sourcePoint" />
            <mxPoint x="190" y="460" as="targetPoint" />
          </mxGeometry>
        </mxCell>
        <mxCell id="n79x1sxixXkn9saHMdTL-17" value="春菜" style="rounded=0;whiteSpace=wrap;html=1;" vertex="1" parent="1">
          <mxGeometry x="240" y="620" width="120" height="60" as="geometry" />
        </mxCell>
        <mxCell id="n79x1sxixXkn9saHMdTL-18" value="" style="endArrow=none;html=1;rounded=0;entryX=0;entryY=0.5;entryDx=0;entryDy=0;exitX=1;exitY=0.5;exitDx=0;exitDy=0;" edge="1" parent="1" source="n79x1sxixXkn9saHMdTL-10" target="n79x1sxixXkn9saHMdTL-17">
          <mxGeometry width="50" height="50" relative="1" as="geometry">
            <mxPoint x="140" y="510" as="sourcePoint" />
            <mxPoint x="190" y="460" as="targetPoint" />
          </mxGeometry>
        </mxCell>
        <mxCell id="n79x1sxixXkn9saHMdTL-19" value="青团" style="rounded=0;whiteSpace=wrap;html=1;" vertex="1" parent="1">
          <mxGeometry x="240" y="710" width="120" height="60" as="geometry" />
        </mxCell>
        <mxCell id="n79x1sxixXkn9saHMdTL-20" value="" style="endArrow=none;html=1;rounded=0;entryX=0;entryY=0.5;entryDx=0;entryDy=0;exitX=1;exitY=0.5;exitDx=0;exitDy=0;" edge="1" parent="1" source="n79x1sxixXkn9saHMdTL-11" target="n79x1sxixXkn9saHMdTL-19">
          <mxGeometry width="50" height="50" relative="1" as="geometry">
            <mxPoint x="140" y="600" as="sourcePoint" />
            <mxPoint x="190" y="550" as="targetPoint" />
          </mxGeometry>
        </mxCell>
        <mxCell id="n79x1sxixXkn9saHMdTL-21" value="香椿" style="rounded=0;whiteSpace=wrap;html=1;" vertex="1" parent="1">
          <mxGeometry x="240" y="790" width="120" height="60" as="geometry" />
        </mxCell>
        <mxCell id="n79x1sxixXkn9saHMdTL-22" value="" style="endArrow=none;html=1;rounded=0;entryX=0;entryY=0.5;entryDx=0;entryDy=0;" edge="1" parent="1" source="n79x1sxixXkn9saHMdTL-12" target="n79x1sxixXkn9saHMdTL-21">
          <mxGeometry width="50" height="50" relative="1" as="geometry">
            <mxPoint x="140" y="600" as="sourcePoint" />
            <mxPoint x="190" y="550" as="targetPoint" />
          </mxGeometry>
        </mxCell>
        <mxCell id="n79x1sxixXkn9saHMdTL-23" value="逻辑" style="text;html=1;strokeColor=none;fillColor=none;align=center;verticalAlign=middle;whiteSpace=wrap;rounded=0;" vertex="1" parent="1">
          <mxGeometry x="570" y="270" width="60" height="30" as="geometry" />
        </mxCell>
        <mxCell id="n79x1sxixXkn9saHMdTL-24" value="先点击季节" style="rounded=0;whiteSpace=wrap;html=1;" vertex="1" parent="1">
          <mxGeometry x="540" y="330" width="120" height="60" as="geometry" />
        </mxCell>
        <mxCell id="n79x1sxixXkn9saHMdTL-25" value="" style="endArrow=classic;html=1;rounded=0;exitX=0.5;exitY=1;exitDx=0;exitDy=0;" edge="1" parent="1" source="n79x1sxixXkn9saHMdTL-23">
          <mxGeometry width="50" height="50" relative="1" as="geometry">
            <mxPoint x="430" y="410" as="sourcePoint" />
            <mxPoint x="600" y="330" as="targetPoint" />
          </mxGeometry>
        </mxCell>
        <mxCell id="n79x1sxixXkn9saHMdTL-29" value="" style="edgeStyle=orthogonalEdgeStyle;rounded=0;orthogonalLoop=1;jettySize=auto;html=1;" edge="1" parent="1" source="n79x1sxixXkn9saHMdTL-26">
          <mxGeometry relative="1" as="geometry">
            <mxPoint x="600" y="525" as="targetPoint" />
          </mxGeometry>
        </mxCell>
        <mxCell id="n79x1sxixXkn9saHMdTL-26" value="获取季节名称" style="rounded=0;whiteSpace=wrap;html=1;" vertex="1" parent="1">
          <mxGeometry x="540" y="430" width="120" height="60" as="geometry" />
        </mxCell>
        <mxCell id="n79x1sxixXkn9saHMdTL-31" value="" style="endArrow=classic;html=1;rounded=0;exitX=0.5;exitY=1;exitDx=0;exitDy=0;entryX=0.5;entryY=0;entryDx=0;entryDy=0;" edge="1" parent="1" source="n79x1sxixXkn9saHMdTL-24" target="n79x1sxixXkn9saHMdTL-26">
          <mxGeometry width="50" height="50" relative="1" as="geometry">
            <mxPoint x="430" y="600" as="sourcePoint" />
            <mxPoint x="480" y="680" as="targetPoint" />
          </mxGeometry>
        </mxCell>
        <mxCell id="n79x1sxixXkn9saHMdTL-32" value="&lt;span&gt;判断答案是否符合季节&lt;/span&gt;" style="rhombus;whiteSpace=wrap;html=1;" vertex="1" parent="1">
          <mxGeometry x="525" y="530" width="150" height="80" as="geometry" />
        </mxCell>
        <mxCell id="n79x1sxixXkn9saHMdTL-38" value="" style="edgeStyle=orthogonalEdgeStyle;rounded=0;orthogonalLoop=1;jettySize=auto;html=1;" edge="1" parent="1" source="n79x1sxixXkn9saHMdTL-33" target="n79x1sxixXkn9saHMdTL-37">
          <mxGeometry relative="1" as="geometry" />
        </mxCell>
        <mxCell id="n79x1sxixXkn9saHMdTL-40" value="" style="edgeStyle=orthogonalEdgeStyle;rounded=0;orthogonalLoop=1;jettySize=auto;html=1;" edge="1" parent="1" source="n79x1sxixXkn9saHMdTL-33" target="n79x1sxixXkn9saHMdTL-39">
          <mxGeometry relative="1" as="geometry" />
        </mxCell>
        <mxCell id="n79x1sxixXkn9saHMdTL-33" value="每个季节和答案就是一个结构映射对象" style="rounded=0;whiteSpace=wrap;html=1;" vertex="1" parent="1">
          <mxGeometry x="760" y="540" width="120" height="60" as="geometry" />
        </mxCell>
        <mxCell id="n79x1sxixXkn9saHMdTL-34" value="" style="endArrow=classic;html=1;rounded=0;exitX=0.96;exitY=0.475;exitDx=0;exitDy=0;exitPerimeter=0;entryX=0;entryY=0.5;entryDx=0;entryDy=0;" edge="1" parent="1" source="n79x1sxixXkn9saHMdTL-32" target="n79x1sxixXkn9saHMdTL-33">
          <mxGeometry width="50" height="50" relative="1" as="geometry">
            <mxPoint x="700" y="600" as="sourcePoint" />
            <mxPoint x="750" y="550" as="targetPoint" />
          </mxGeometry>
        </mxCell>
        <mxCell id="n79x1sxixXkn9saHMdTL-35" value="判断细节" style="text;html=1;strokeColor=none;fillColor=none;align=center;verticalAlign=middle;whiteSpace=wrap;rounded=0;" vertex="1" parent="1">
          <mxGeometry x="690" y="530" width="60" height="30" as="geometry" />
        </mxCell>
        <mxCell id="n79x1sxixXkn9saHMdTL-42" value="" style="edgeStyle=orthogonalEdgeStyle;rounded=0;orthogonalLoop=1;jettySize=auto;html=1;" edge="1" parent="1" source="n79x1sxixXkn9saHMdTL-37" target="n79x1sxixXkn9saHMdTL-41">
          <mxGeometry relative="1" as="geometry" />
        </mxCell>
        <mxCell id="n79x1sxixXkn9saHMdTL-37" value="var obj={}" style="whiteSpace=wrap;html=1;rounded=0;" vertex="1" parent="1">
          <mxGeometry x="760" y="630" width="120" height="60" as="geometry" />
        </mxCell>
        <mxCell id="n79x1sxixXkn9saHMdTL-39" value="字典对象" style="rounded=0;whiteSpace=wrap;html=1;" vertex="1" parent="1">
          <mxGeometry x="960" y="540" width="120" height="60" as="geometry" />
        </mxCell>
        <mxCell id="n79x1sxixXkn9saHMdTL-46" value="" style="edgeStyle=orthogonalEdgeStyle;rounded=0;orthogonalLoop=1;jettySize=auto;html=1;" edge="1" parent="1" source="n79x1sxixXkn9saHMdTL-41" target="n79x1sxixXkn9saHMdTL-45">
          <mxGeometry relative="1" as="geometry" />
        </mxCell>
        <mxCell id="n79x1sxixXkn9saHMdTL-41" value="obj[&quot;季节&quot;]" style="whiteSpace=wrap;html=1;rounded=0;" vertex="1" parent="1">
          <mxGeometry x="760" y="710" width="120" height="50" as="geometry" />
        </mxCell>
        <mxCell id="n79x1sxixXkn9saHMdTL-48" value="" style="edgeStyle=orthogonalEdgeStyle;rounded=0;orthogonalLoop=1;jettySize=auto;html=1;" edge="1" parent="1" source="n79x1sxixXkn9saHMdTL-45" target="n79x1sxixXkn9saHMdTL-47">
          <mxGeometry relative="1" as="geometry" />
        </mxCell>
        <mxCell id="n79x1sxixXkn9saHMdTL-45" value="obj[&quot;答案&quot;]" style="whiteSpace=wrap;html=1;rounded=0;" vertex="1" parent="1">
          <mxGeometry x="760" y="790" width="120" height="50" as="geometry" />
        </mxCell>
        <mxCell id="n79x1sxixXkn9saHMdTL-50" value="" style="edgeStyle=orthogonalEdgeStyle;rounded=0;orthogonalLoop=1;jettySize=auto;html=1;" edge="1" parent="1" source="n79x1sxixXkn9saHMdTL-47" target="n79x1sxixXkn9saHMdTL-49">
          <mxGeometry relative="1" as="geometry" />
        </mxCell>
        <mxCell id="n79x1sxixXkn9saHMdTL-47" value="所有答案的集合" style="whiteSpace=wrap;html=1;rounded=0;" vertex="1" parent="1">
          <mxGeometry x="760" y="850" width="120" height="60" as="geometry" />
        </mxCell>
        <mxCell id="n79x1sxixXkn9saHMdTL-52" value="" style="edgeStyle=orthogonalEdgeStyle;rounded=0;orthogonalLoop=1;jettySize=auto;html=1;" edge="1" parent="1" source="n79x1sxixXkn9saHMdTL-49" target="n79x1sxixXkn9saHMdTL-51">
          <mxGeometry relative="1" as="geometry" />
        </mxCell>
        <mxCell id="n79x1sxixXkn9saHMdTL-49" value="var all=[]" style="whiteSpace=wrap;html=1;rounded=0;" vertex="1" parent="1">
          <mxGeometry x="960" y="850" width="120" height="60" as="geometry" />
        </mxCell>
        <mxCell id="n79x1sxixXkn9saHMdTL-51" value="all1=obj1&lt;br&gt;all2=obj2&lt;br&gt;all3=obj3&lt;br&gt;all4=obj4" style="whiteSpace=wrap;html=1;rounded=0;" vertex="1" parent="1">
          <mxGeometry x="960" y="990" width="120" height="60" as="geometry" />
        </mxCell>
      </root>
    </mxGraphModel>
  </diagram>
</mxfile>
